<svg id="Lager_1" data-name="Lager 1" xmlns="http://www.w3.org/2000/svg" viewBox="0 0 641.6 624.52"><defs><style>.cls-1{fill:#21386f;}</style></defs><title>week-1.1</title><path class="cls-1" d="M172.46,158.19A23.51,23.51,0,0,0,196,134.7V23.5a23.5,23.5,0,0,0-47,0V134.7a23.49,23.49,0,0,0,23.49,23.49Z" transform="translate(0)"/><path class="cls-1" d="M578.13,56H506.7v56.41a46.43,46.43,0,1,1-83.91,28.2c0-.45,0-.91,0-1.36a46,46,0,0,1,8.73-26.89V56H210.05v56.41a46.44,46.44,0,1,1-83.91,28.2c0-.45,0-.91,0-1.36a45.89,45.89,0,0,1,8.74-26.89V56H63.45A63.52,63.52,0,0,0,0,119.41V561.07a63.52,63.52,0,0,0,63.45,63.45H578.13a63.53,63.53,0,0,0,63.47-63.45V119.41A63.53,63.53,0,0,0,578.13,56Zm0,491.28a15.59,15.59,0,0,1-15.53,15.57H79a15.59,15.59,0,0,1-15.56-15.57V249.09l514.68-.18Z" transform="translate(0)"/><path class="cls-1" d="M469.11,158.19A23.49,23.49,0,0,0,492.6,134.7V23.5a23.5,23.5,0,0,0-47,0V134.7a23.5,23.5,0,0,0,23.51,23.49Z" transform="translate(0)"/><path class="cls-1" d="M305.17,297.86h40V507h-46V345l-41.71,15.1L243.6,324.9Z" transform="translate(0)"/></svg>